<?xml version="1.0" encoding="utf-8"?>
<!-- Generator: Adobe Illustrator 24.1.2, SVG Export Plug-In . SVG Version: 6.00 Build 0)  -->
<svg version="1.1" id="Слой_1" xmlns="http://www.w3.org/2000/svg" xmlns:xlink="http://www.w3.org/1999/xlink" x="0px" y="0px"
	 viewBox="0 0 445 141.7" style="enable-background:new 0 0 445 141.7;" xml:space="preserve">
<style type="text/css">
	.st0{fill:#6E6259;}
	.st1{fill:#C00D1E;}
</style>
<g>
	<path class="st0" d="M101.8,123.4c1.9,0,3.5-0.6,4.7-1.7c1.2-1.1,1.8-2.5,1.8-4.3c0-1.8-0.6-3.2-1.8-4.3s-2.7-1.7-4.7-1.7H88.8
		v11.9H101.8z M99.9,88H88.8v11h11.1c1.8,0,3.2-0.5,4.3-1.6c1.1-1.1,1.7-2.3,1.7-4c0-1.6-0.6-2.9-1.7-4C103.1,88.5,101.7,88,99.9,88
		 M115.5,104.5c5.6,3.2,8.4,7.9,8.4,14c0,5.4-2.1,9.7-6.3,13.1c-4.2,3.4-9.4,5.1-15.7,5.1H73.2v-62h26.7c6.1,0,11.2,1.7,15.4,5
		c4.1,3.3,6.2,7.6,6.2,12.9C121.4,97.4,119.5,101.4,115.5,104.5"/>
	<path class="st0" d="M145.6,88v16h11.7c2.1,0,4-0.8,5.6-2.3c1.6-1.6,2.3-3.4,2.3-5.6c0-2.2-0.8-4.1-2.3-5.6
		c-1.6-1.6-3.4-2.3-5.6-2.3C157.3,88,145.6,88,145.6,88z M165.8,136.8L153,116.3h-7.4v20.4H130V74.7h27.3c6.5,0,12,2,16.6,6.2
		c4.6,4.1,6.8,9.2,6.8,15.1c0,3.8-1.2,7.3-3.5,10.5s-5.4,5.7-9.2,7.5l14.5,22.8L165.8,136.8L165.8,136.8z"/>
	<polygon class="st0" points="205.7,123.1 232.9,123.1 232.9,136.8 190,136.8 190,74.7 232.5,74.7 232.5,88.3 205.7,88.3 
		205.7,98.6 230,98.6 230,112.1 205.7,112.1 	"/>
	<polygon class="st0" points="310.1,74.7 310.1,136.8 294.5,136.8 294.5,100.6 276.9,127 275.1,127 257.4,100.6 257.4,136.8 
		241.8,136.8 241.8,74.7 257.4,74.7 276,102.3 294.5,74.7 	"/>
	<path class="st0" d="M337.4,118.6c3.3,3.3,7.5,5,12.5,5s9.2-1.7,12.5-5c3.3-3.3,5.1-7.6,5.1-12.9c0-5.3-1.7-9.5-5.1-12.9
		c-3.3-3.3-7.5-5-12.5-5c-5,0-9.2,1.7-12.5,5c-3.3,3.3-5.1,7.6-5.1,12.9C332.3,110.9,333.9,115.3,337.4,118.6 M373.4,129.4
		c-6.4,6.4-14.3,9.5-23.6,9.5c-9.3,0-17.1-3.2-23.6-9.5c-6.4-6.4-9.6-14.3-9.6-23.7s3.2-17.2,9.6-23.7c6.4-6.4,14.3-9.5,23.6-9.5
		c9.3,0,17.1,3.2,23.6,9.5c6.4,6.4,9.6,14.3,9.6,23.7C383,115.1,379.8,123,373.4,129.4"/>
	<path class="st0" d="M405.1,88v16h11.7c2.1,0,4-0.8,5.6-2.3c1.6-1.6,2.3-3.4,2.3-5.6c0-2.2-0.8-4.1-2.3-5.6
		c-1.6-1.6-3.4-2.3-5.6-2.3C416.8,88,405.1,88,405.1,88z M425.4,136.8l-12.9-20.4h-7.4v20.4h-15.6v-62h27.3c6.5,0,12,2,16.6,6.2
		c4.6,4.1,6.8,9.2,6.8,15.1c0,3.8-1.2,7.3-3.5,10.5c-2.3,3.2-5.4,5.7-9.2,7.5l14.5,22.8L425.4,136.8L425.4,136.8z"/>
	<path class="st1" d="M53.9,42.8l16.4,13.7c2.9-5.3,4.7-11.2,4.7-17.6l0,0L53.9,42.8z"/>
	<path class="st1" d="M28,28.1L20.6,7.9c-5.5,3.2-9.9,7.8-13.1,13.2L28,28.1z"/>
	<path class="st1" d="M34.9,24.2L39,2.9l3.9,20.8L56.7,7.5c-5.3-3-11.3-4.7-17.7-4.7c-6.7,0-13,1.9-18.3,5.1L34.9,24.2z"/>
	<path class="st1" d="M53.5,34.8l21.3,4c0-6.7-1.9-13-5.1-18.3L53.5,34.8z"/>
	<path class="st1" d="M49.7,27.9l20.2-7.4c-3.2-5.5-7.8-9.9-13.2-13L49.7,27.9z"/>
	<path class="st1" d="M23.9,34.9L7.7,21.1C4.6,26.4,3,32.3,3,38.8L23.9,34.9z"/>
	<path class="st1" d="M49.9,49.5l7.4,20.3c5.5-3.2,9.9-7.8,13-13.2L49.9,49.5z"/>
	<path class="st1" d="M43,53.4l-4,21.2l-3.9-20.8L21.3,70.1l6.9-20.4L8.1,57.2l16.3-14.4L3,38.8l0,0c0,19.9,16.1,35.9,35.9,35.9
		c6.7,0,13-1.9,18.3-5.1L43,53.4z"/>
</g>
</svg>
