<?xml version="1.0" standalone="no"?>
<!DOCTYPE svg PUBLIC "-//W3C//DTD SVG 20010904//EN"
 "http://www.w3.org/TR/2001/REC-SVG-20010904/DTD/svg10.dtd">
<svg version="1.0" xmlns="http://www.w3.org/2000/svg"
 width="408.000000pt" height="408.000000pt" viewBox="0 0 408.000000 408.000000"
 preserveAspectRatio="xMidYMid meet">

<g transform="translate(0.000000,408.000000) scale(0.100000,-0.100000)"
fill="#000000" stroke="none">
<path d="M0 2040 l0 -2040 2040 0 2040 0 0 2040 0 2040 -2040 0 -2040 0 0
-2040z m1925 1178 c41 -12 71 -26 68 -31 -3 -6 -1 -7 5 -3 7 4 58 -7 114 -24
57 -18 136 -41 176 -52 40 -11 71 -22 69 -24 -6 -6 -319 65 -332 76 -6 5 -14
8 -17 5 -3 -3 -36 2 -74 10 -38 8 -79 18 -91 20 -16 4 -21 10 -17 23 5 14 4
14 -4 2 -6 -8 -9 -17 -7 -20 4 -6 -78 -50 -91 -50 -4 0 -3 6 2 13 5 7 1 4 -8
-6 -16 -17 -178 -101 -178 -93 0 7 145 90 153 88 4 -1 7 2 7 7 0 14 70 52 82
45 6 -4 8 -2 4 4 -7 12 20 31 47 32 9 0 51 -10 92 -22z m-65 -87 c0 -5 10 -7
22 -3 11 3 19 1 16 -4 -4 -5 8 -10 25 -10 17 -1 33 -6 35 -12 1 -5 12 -8 22
-5 12 3 20 0 20 -6 0 -7 5 -9 11 -5 6 3 21 2 32 -4 12 -5 93 -29 179 -53 87
-24 156 -44 154 -46 -3 -3 -252 48 -492 101 -51 11 -65 11 -88 -1 -14 -8 -32
-11 -38 -7 -6 4 -8 3 -5 -3 3 -5 -35 -27 -85 -49 -112 -48 -121 -51 -80 -25
18 12 38 22 45 24 7 1 15 6 18 10 3 5 42 30 85 57 74 45 124 62 124 41z m537
-57 c-3 -3 -12 -4 -19 -1 -8 3 -5 6 6 6 11 1 17 -2 13 -5z m-407 -76 c101 -28
146 -44 138 -51 -9 -6 -5 -7 12 -3 21 5 265 -52 257 -60 -7 -7 -227 43 -220
50 4 5 -1 6 -12 2 -12 -3 -88 8 -170 25 -88 17 -163 28 -182 24 -17 -3 -33 -2
-35 2 -3 4 -3 3 -2 -4 3 -11 -62 -40 -78 -35 -5 1 -8 -3 -8 -9 0 -6 -7 -9 -15
-5 -8 3 -15 2 -15 -3 0 -8 -81 -43 -87 -38 -2 2 9 10 25 18 15 8 47 26 70 41
24 15 50 24 57 22 7 -3 15 2 18 10 5 14 71 54 90 56 4 0 75 -19 157 -42z m17
-105 c98 -25 216 -56 263 -69 47 -12 80 -23 73 -23 -7 -1 -125 20 -262 45
l-250 46 -58 -23 c-32 -12 -65 -22 -73 -23 -8 -1 -41 -15 -73 -30 -33 -15 -61
-26 -63 -23 -9 8 136 78 148 71 6 -4 8 -3 5 3 -3 5 7 17 24 27 16 9 29 14 29
10 0 -4 9 1 19 10 11 10 25 15 32 10 8 -4 10 -3 5 4 -10 16 -18 18 181 -35z
m-123 -69 c20 -3 34 -10 31 -14 -3 -5 0 -12 6 -16 8 -4 9 -3 5 4 -4 7 -1 12 7
12 26 0 222 -52 227 -60 3 -5 12 -8 20 -7 29 2 110 -15 110 -24 0 -5 -10 -7
-22 -4 -13 2 -116 21 -230 40 l-208 36 -86 -31 c-96 -34 -94 -33 -94 -21 0 13
172 101 187 96 6 -2 28 -7 47 -11z m503 -30 c-3 -3 -12 -4 -19 -1 -8 3 -5 6 6
6 11 1 17 -2 13 -5z m-747 -63 c0 -9 -41 -23 -49 -16 -3 4 28 20 47 24 1 1 2
-3 2 -8z m1903 -53 c-14 -6 -12 -7 8 -5 24 2 184 -62 176 -70 -2 -1 -63 17
-136 41 l-133 44 -92 -15 c-50 -8 -107 -13 -127 -11 -20 2 -41 -2 -47 -8 -6
-6 -37 -15 -69 -18 -32 -4 -68 -10 -80 -13 -13 -3 -23 -1 -23 3 0 5 57 22 128
38 70 16 168 39 217 51 l90 22 53 -26 c42 -20 49 -27 35 -33z m-1535 17 c246
-59 389 -95 352 -90 -19 3 -147 22 -284 44 l-249 38 -144 -46 c-79 -26 -143
-45 -143 -44 0 6 94 45 108 46 6 0 12 3 12 7 0 3 16 14 36 23 24 12 33 13 29
5 -4 -7 0 -6 7 2 22 25 71 49 101 50 15 0 93 -16 175 -35z m342 15 c20 -6 21
-8 5 -8 -11 0 -29 3 -40 8 -25 11 1 11 35 0z m57 -16 c-3 -3 -12 -4 -19 -1 -8
3 -5 6 6 6 11 1 17 -2 13 -5z m-429 -92 c68 -15 121 -30 118 -33 -3 -3 15 -6
42 -7 47 -2 264 -50 227 -51 -47 0 -329 46 -315 52 8 4 2 5 -15 2 -16 -2 -70
1 -120 8 l-90 12 -125 -37 c-69 -21 -129 -37 -133 -35 -5 1 26 16 67 33 55 23
78 28 86 20 8 -8 10 -7 5 5 -4 12 6 21 42 37 61 26 65 26 211 -6z m1022 19
c-8 -5 -37 -11 -65 -14 l-50 -6 50 14 c62 16 88 19 65 6z m475 0 c-3 -6 3 -9
12 -9 10 1 65 -20 123 -47 105 -48 132 -63 95 -52 -192 55 -239 67 -258 69
-12 0 -136 -16 -276 -36 -139 -20 -255 -35 -258 -33 -2 2 11 7 29 10 18 3 134
28 258 56 227 50 286 59 275 42z m-608 -27 c-3 -3 -12 -4 -19 -1 -8 3 -5 6 6
6 11 1 17 -2 13 -5z m-2233 -71 c4 -4 15 -8 24 -8 48 -2 111 -18 105 -28 -4
-6 0 -8 10 -4 17 6 88 -5 287 -47 134 -28 129 -32 -14 -12 -55 8 -157 22 -226
32 -151 21 -356 21 -342 0 3 -5 -5 -7 -16 -4 -12 4 -20 2 -16 -3 3 -5 -4 -10
-15 -10 -33 -2 -39 -4 -47 -11 -4 -5 -17 -8 -28 -8 -26 1 -5 11 134 70 93 39
130 47 144 33z m1496 -53 c276 -56 330 -71 185 -49 -38 6 -81 12 -95 13 -14 2
-108 13 -210 26 l-186 24 -119 -33 c-175 -47 -178 -47 -90 -10 11 5 47 20 80
35 33 14 70 26 82 26 13 0 20 4 18 8 -6 9 12 18 35 19 8 0 143 -26 300 -59z
m1363 46 c116 -49 143 -62 148 -69 3 -5 8 -8 10 -6 6 3 81 -22 77 -26 -8 -8
-143 36 -161 52 -11 10 -17 12 -13 6 9 -16 -2 -16 -59 -1 -41 11 -61 28 -33
28 6 0 8 3 4 7 -4 5 -13 1 -19 -8 -16 -21 -87 -35 -87 -17 0 10 -2 10 -9 0 -5
-9 -85 -23 -232 -43 -123 -16 -228 -28 -233 -26 -8 3 169 39 209 43 11 1 27 4
35 7 33 13 130 28 140 22 5 -3 10 -2 10 3 0 6 35 17 78 25 100 19 99 19 135 3z
m-1076 -12 c-3 -3 -12 -4 -19 -1 -8 3 -5 6 6 6 11 1 17 -2 13 -5z m476 -1 c-7
-2 -19 -2 -25 0 -7 3 -2 5 12 5 14 0 19 -2 13 -5z m-2065 -119 c130 -25 256
-48 280 -51 23 -3 41 -8 38 -10 -6 -6 -410 39 -416 46 -9 10 -205 9 -211 -2
-4 -5 -25 -10 -47 -11 -22 0 -38 -4 -36 -7 2 -4 -13 -10 -34 -14 -20 -3 -48
-9 -62 -11 -14 -3 8 8 49 25 41 17 78 28 83 25 4 -3 8 -1 8 4 0 14 87 45 101
36 8 -4 9 -3 5 4 -9 16 -27 18 242 -34z m1152 16 c52 -10 116 -22 142 -26 26
-3 46 -10 43 -14 -3 -5 3 -6 12 -4 10 2 61 -4 113 -15 82 -17 87 -19 35 -15
-33 3 -109 11 -170 19 -329 40 -317 40 -458 6 -70 -17 -131 -31 -135 -31 -4 0
42 21 103 45 60 25 116 43 123 40 7 -2 10 -1 7 4 -14 23 34 21 185 -9z m1494
24 c9 -3 13 -11 9 -17 -4 -6 -1 -7 6 -3 11 7 236 -73 228 -81 -5 -4 -141 29
-147 36 -3 3 -16 7 -30 8 -14 0 -51 5 -82 10 -32 5 -59 6 -60 3 -2 -6 -207
-31 -448 -55 -43 -4 -44 -4 -10 5 19 5 60 14 90 19 30 5 129 24 219 41 90 17
170 29 178 26 8 -3 11 -1 8 4 -7 11 15 13 39 4z m-2751 -121 c50 -10 73 -19
65 -24 -9 -6 -3 -9 17 -9 24 0 27 2 15 11 -12 9 -11 10 7 6 13 -3 87 -16 165
-28 79 -13 135 -25 126 -27 -9 -2 -133 8 -275 22 -202 20 -266 24 -297 15 -21
-6 -47 -8 -57 -6 -11 3 -19 2 -19 -3 0 -8 -119 -34 -126 -27 -2 2 51 24 118
49 131 48 129 48 261 21z m1287 -8 c400 -68 425 -78 110 -45 -297 32 -288 32
-411 5 -61 -14 -119 -25 -128 -24 -15 0 126 55 159 62 8 2 25 9 38 16 13 7 30
10 38 7 9 -3 12 -1 9 5 -4 6 2 8 17 4 12 -3 88 -16 168 -30z m1480 20 c32 -12
33 -14 10 -15 l-25 -2 25 -8 c14 -4 32 -8 40 -9 13 -1 13 0 0 10 -18 12 -18
12 88 -25 45 -16 80 -31 78 -33 -2 -2 -50 6 -107 18 -95 21 -285 32 -291 18
-3 -6 -328 -40 -368 -38 -14 0 22 9 80 20 209 38 425 77 430 77 3 0 21 -6 40
-13z m-2293 -1 c-3 -3 -12 -4 -19 -1 -8 3 -5 6 6 6 11 1 17 -2 13 -5z m1240 0
c-3 -3 -12 -4 -19 -1 -8 3 -5 6 6 6 11 1 17 -2 13 -5z m436 -1 c-7 -2 -19 -2
-25 0 -7 3 -2 5 12 5 14 0 19 -2 13 -5z m-2063 -123 c130 -18 358 -60 300 -55
-30 2 -118 9 -195 15 -77 6 -153 13 -170 17 -43 8 -198 11 -210 3 -9 -6 -52
-14 -185 -35 -19 -3 9 10 63 29 54 19 106 32 115 29 10 -4 13 -2 9 3 -5 5 6
13 24 19 24 9 51 8 103 -2 39 -7 105 -17 146 -23z m357 34 c-3 -3 -12 -4 -19
-1 -8 3 -5 6 6 6 11 1 17 -2 13 -5z m723 -17 c0 -6 3 -7 7 -4 3 4 13 1 21 -6
13 -10 14 -9 7 2 -6 11 -1 13 26 7 19 -3 79 -13 134 -21 167 -26 321 -53 300
-54 -11 0 -112 9 -225 20 -260 25 -349 25 -485 0 -60 -11 -111 -19 -113 -17
-5 6 101 35 109 30 4 -2 9 0 11 5 1 5 36 20 76 33 72 24 132 26 132 5z m523
16 c-7 -2 -21 -2 -30 0 -10 3 -4 5 12 5 17 0 24 -2 18 -5z m480 0 c-7 -2 -19
-2 -25 0 -7 3 -2 5 12 5 14 0 19 -2 13 -5z m703 -44 c123 -41 158 -59 73 -39
-155 37 -204 38 -485 14 -148 -13 -278 -23 -289 -23 -22 1 114 25 185 33 25 3
95 14 155 25 125 23 128 24 122 13 -3 -4 18 -8 46 -8 29 -1 37 1 20 3 -18 2
-33 8 -33 14 0 20 88 7 206 -32z m-2881 -74 c55 -9 150 -23 210 -31 201 -28
220 -33 100 -28 -60 3 -128 7 -150 9 -79 8 -261 18 -290 16 -16 -1 -77 -9
-134 -17 -57 -8 -105 -13 -107 -11 -5 5 176 60 199 61 9 0 17 4 17 8 0 12 43
10 155 -7z m1245 0 c52 -9 167 -27 255 -40 197 -29 177 -30 -137 -8 -234 16
-253 16 -373 0 -70 -10 -129 -16 -132 -14 -2 2 18 10 44 17 26 7 71 20 99 31
28 10 62 15 74 12 16 -4 21 -3 16 5 -10 17 37 15 154 -3z m1650 -29 c66 -21
98 -34 75 -32 -22 3 -85 10 -140 17 -85 10 -142 10 -359 -5 -141 -10 -259 -16
-262 -14 -5 6 179 32 233 32 22 1 39 4 37 7 -2 3 22 9 54 13 31 4 80 11 107
16 78 13 131 6 255 -34z m-3283 -42 c-3 -3 -12 -4 -19 -1 -8 3 -5 6 6 6 11 1
17 -2 13 -5z m866 -1 c-7 -2 -19 -2 -25 0 -7 3 -2 5 12 5 14 0 19 -2 13 -5z
m364 1 c-3 -3 -12 -4 -19 -1 -8 3 -5 6 6 6 11 1 17 -2 13 -5z m871 -1 c-10 -2
-26 -2 -35 0 -10 3 -2 5 17 5 19 0 27 -2 18 -5z m460 0 c-10 -2 -26 -2 -35 0
-10 3 -2 5 17 5 19 0 27 -2 18 -5z m-2143 -32 c352 -45 466 -62 366 -55 -35 2
-95 4 -133 4 -38 0 -67 3 -65 8 10 15 -357 13 -477 -3 -144 -18 -147 -18 -66
5 36 10 76 16 90 14 17 -4 21 -3 12 4 -9 6 4 12 40 20 98 22 85 21 233 3z
m1295 -6 c63 -9 123 -20 132 -25 10 -5 23 -8 30 -5 7 3 58 -2 113 -9 l100 -14
-135 5 c-74 4 -137 9 -140 12 -12 14 -358 12 -464 -3 -142 -21 -148 -19 -46
10 203 59 192 58 410 29z m1518 -1 c31 -9 75 -23 97 -30 39 -14 38 -14 -30 -7
-83 9 -478 11 -485 2 -3 -3 -63 -8 -135 -11 l-130 -6 105 15 c58 8 177 25 265
38 173 25 226 25 313 -1z m175 -51 c-7 -2 -19 -2 -25 0 -7 3 -2 5 12 5 14 0
19 -2 13 -5z m-2890 -53 c330 -38 335 -39 177 -34 -394 11 -461 16 -455 33 4
12 1 11 -9 -3 -17 -21 -95 -33 -121 -19 -14 8 -2 14 61 30 44 11 83 21 87 22
4 0 121 -12 260 -29z m1197 4 c80 -9 188 -22 240 -30 93 -12 92 -12 -95 -7
-104 3 -226 8 -270 12 -44 3 -125 1 -180 -6 -166 -19 -195 -15 -80 13 55 13
114 28 130 33 32 10 38 10 255 -15z m1555 -9 l130 -34 -95 7 c-119 9 -291 9
-535 0 l-190 -7 105 14 c161 22 413 53 435 54 11 0 79 -15 150 -34z m-3185
-25 c0 -5 -19 -10 -42 -9 -37 1 -39 2 -18 9 36 12 60 12 60 0z m803 -17 c-7
-2 -19 -2 -25 0 -7 3 -2 5 12 5 14 0 19 -2 13 -5z m-609 -31 c-7 -4 29 -8 79
-9 49 -2 153 -10 231 -19 78 -8 175 -19 216 -24 54 -6 36 -7 -65 -3 -77 3
-270 6 -430 7 -261 0 -302 5 -185 21 19 2 58 11 85 19 57 16 86 20 69 8z
m1572 -32 l269 -28 -210 5 c-115 3 -270 8 -343 12 -73 3 -136 3 -140 0 -4 -4
-54 -9 -112 -12 l-105 -5 104 24 c57 13 107 21 113 18 5 -3 14 -1 21 4 19 15
49 20 93 15 22 -3 162 -17 310 -33z m1416 8 c81 -18 146 -33 145 -34 -1 -2
-64 2 -139 7 -87 6 -246 6 -440 0 -166 -5 -304 -9 -305 -7 -1 1 127 15 285 30
158 16 289 30 291 32 7 6 8 6 163 -28z m-3259 -35 c-7 -2 -19 -2 -25 0 -7 3
-2 5 12 5 14 0 19 -2 13 -5z m592 -67 l240 -23 -425 0 c-370 1 -417 3 -360 14
36 7 90 14 121 15 32 2 52 6 45 10 -21 14 137 7 379 -16z m1235 0 l245 -24
-430 1 c-370 1 -421 3 -365 14 36 6 87 14 113 17 27 2 52 7 55 10 10 11 138 5
382 -18z m1485 -4 l90 -18 -430 0 c-236 0 -410 1 -385 3 25 2 133 13 240 23
219 21 349 19 485 -8z m-2726 -93 c103 -7 176 -16 165 -20 -10 -4 -166 -7
-346 -8 -262 0 -328 2 -328 13 0 18 114 33 230 31 52 -2 178 -8 279 -16z
m1291 -4 c107 -8 213 -16 235 -18 22 -2 -157 -4 -398 -5 -241 0 -445 2 -455 6
-10 4 26 13 88 23 118 19 221 18 530 -6z m1450 -4 l105 -18 -485 0 c-267 1
-467 2 -445 4 333 24 474 35 495 38 50 7 227 -6 330 -24z m-3260 -8 c0 -5 -28
-9 -63 -9 -54 -2 -57 -1 -22 6 56 10 85 11 85 3z m808 -10 c-15 -2 -42 -2 -60
0 -18 2 -6 4 27 4 33 0 48 -2 33 -4z m355 0 c-7 -2 -21 -2 -30 0 -10 3 -4 5
12 5 17 0 24 -2 18 -5z m-295 -140 c12 -3 29 0 37 7 18 15 30 7 22 -14 -9 -23
-64 -30 -92 -12 -29 19 -34 42 -7 31 9 -4 27 -10 40 -12z m-839 -57 c15 -8 33
-22 40 -30 22 -26 -14 -31 -45 -7 -31 25 -74 27 -114 6 -37 -19 -50 -43 -50
-90 0 -47 13 -71 50 -90 39 -20 79 -19 116 4 42 26 65 11 28 -18 -100 -79
-255 9 -229 129 8 36 49 88 79 100 33 14 94 11 125 -4z m206 -6 c0 -9 -11 -16
-27 -18 l-28 -3 0 -109 c0 -87 -3 -109 -15 -114 -13 -5 -15 11 -15 109 l0 115
-30 0 c-18 0 -30 5 -30 13 0 24 13 28 80 25 50 -2 65 -6 65 -18z m165 0 c23
-12 35 -62 21 -88 -12 -22 -60 -42 -102 -42 -29 0 -29 -1 -29 -60 0 -49 -3
-58 -15 -54 -12 5 -15 29 -15 128 0 68 3 126 8 130 9 10 108 -1 132 -14z m265
0 c59 -37 80 -111 49 -176 -44 -92 -181 -99 -234 -11 -74 121 65 261 185 187z
m135 -77 l0 -98 48 55 c26 30 64 73 84 95 l38 40 -3 -128 c-2 -151 -20 -176
-27 -40 l-5 92 -75 -89 c-41 -49 -78 -90 -82 -90 -5 0 -8 59 -8 130 0 109 2
130 15 130 12 0 15 -18 15 -97z m260 -2 l5 -92 79 96 c44 52 81 95 83 95 2 0
3 -58 3 -130 0 -109 -2 -130 -15 -130 -12 0 -15 17 -15 93 l0 92 -48 -55 c-26
-30 -64 -73 -84 -95 l-37 -40 -1 133 c0 103 3 133 13 130 8 -3 14 -36 17 -97z
m250 44 l0 -55 65 0 65 0 0 56 c0 40 3 55 13 52 15 -6 18 -257 2 -260 -6 -2
-11 24 -13 60 l-3 62 -64 0 -64 0 -3 -62 c-5 -107 -23 -66 -26 59 -3 120 0
143 18 143 6 0 10 -24 10 -55z m275 4 l50 -50 5 47 c7 68 30 70 30 3 l0 -53
53 52 c48 47 77 64 77 45 0 -4 -23 -31 -52 -60 l-51 -52 56 -66 c32 -37 57
-70 57 -75 0 -23 -44 9 -87 62 l-48 61 -5 -62 c-3 -34 -9 -61 -15 -61 -5 0
-12 27 -15 61 l-5 60 -39 -51 c-41 -53 -82 -87 -93 -77 -3 4 12 27 33 53 21
25 48 57 58 71 l19 25 -52 52 c-28 28 -51 55 -51 59 0 20 31 2 75 -44z m293
-48 l3 -91 70 82 c39 46 77 90 85 98 12 12 14 -4 14 -118 0 -109 -3 -132 -15
-132 -11 0 -15 19 -17 92 l-3 91 -78 -91 c-43 -51 -83 -92 -88 -92 -10 0 -13
243 -2 254 19 19 28 -8 31 -93z m252 44 l0 -55 65 0 65 0 0 56 c0 40 3 55 13
52 8 -3 13 -41 15 -131 2 -109 0 -127 -13 -127 -12 0 -15 13 -15 60 l0 60 -65
0 -65 0 0 -65 c0 -53 -3 -63 -15 -59 -12 5 -15 29 -15 128 0 68 3 126 7 129
16 17 23 3 23 -48z m242 -41 l3 -97 78 92 c42 50 81 91 86 91 10 0 12 -248 2
-254 -20 -13 -30 16 -33 96 l-3 87 -75 -89 c-41 -49 -78 -90 -82 -90 -5 0 -8
59 -8 130 0 107 3 130 15 130 11 0 15 -20 17 -96z m338 83 c44 -15 61 -56 39
-95 -11 -21 -26 -29 -66 -36 l-52 -10 -3 -55 c-2 -42 -7 -56 -18 -56 -12 0
-16 21 -18 119 -1 66 0 126 2 133 7 16 68 16 116 0z m122 -83 l3 -97 78 92
c43 50 83 91 88 91 6 0 8 -51 7 -127 -3 -106 -6 -128 -18 -128 -12 0 -16 18
-18 93 l-3 93 -75 -88 c-41 -48 -79 -89 -85 -91 -5 -2 -9 49 -9 127 0 108 3
131 15 131 11 0 15 -20 17 -96z m256 38 l3 -52 59 0 59 0 3 52 c2 31 8 53 16
56 10 3 12 -25 10 -130 -2 -80 -7 -133 -13 -133 -5 0 -11 28 -13 63 l-3 62
-59 0 -60 0 0 -59 c0 -51 -12 -83 -25 -69 -4 3 -8 231 -6 261 1 5 7 7 14 5 7
-3 13 -26 15 -56z m337 38 c0 -11 -14 -16 -52 -18 l-53 -3 0 -110 c0 -90 -3
-109 -15 -109 -13 0 -15 20 -15 123 0 68 3 127 7 131 4 4 34 6 68 4 45 -2 60
-7 60 -18z m-3477 -512 c2 -65 0 -78 -13 -78 -12 0 -15 13 -15 65 l0 65 -35 0
-35 0 0 -65 c0 -37 -4 -65 -10 -65 -11 0 -14 143 -3 154 4 4 30 6 58 4 l50 -3
3 -77z m94 72 c10 0 22 -9 28 -20 16 -30 -4 -60 -40 -60 -28 0 -30 -3 -30 -35
0 -24 -5 -35 -15 -35 -12 0 -15 15 -15 73 0 80 4 91 35 83 11 -3 28 -6 37 -6z
m190 -20 c25 -26 29 -36 24 -63 -7 -39 -48 -77 -82 -77 -34 0 -84 51 -84 85 0
35 50 85 85 85 16 0 38 -12 57 -30z m138 15 c0 -10 -11 -15 -35 -15 -28 0 -35
-4 -35 -20 0 -16 7 -20 35 -20 19 0 35 -4 35 -10 0 -5 -16 -10 -35 -10 -31 0
-35 -3 -35 -25 0 -22 4 -25 35 -25 19 0 35 -4 35 -10 0 -5 -20 -10 -45 -10
l-45 0 0 73 c0 41 3 77 7 80 3 4 24 7 45 7 27 0 38 -4 38 -15z m76 -14 c18 18
37 29 41 25 5 -4 -9 -22 -30 -38 l-38 -31 42 -43 c49 -50 32 -61 -18 -12 l-33
32 0 -32 c0 -18 -4 -32 -10 -32 -6 0 -10 31 -10 73 0 76 12 114 18 57 l3 -33
35 34z m139 18 c4 -6 -2 -13 -14 -16 -19 -5 -21 -13 -21 -69 0 -36 -4 -64 -10
-64 -6 0 -10 28 -10 65 0 51 -3 65 -15 65 -8 0 -15 7 -15 15 0 18 75 22 85 4z
m71 -59 c31 0 34 3 34 29 0 17 5 33 10 36 6 4 10 -23 10 -74 0 -47 -4 -81 -10
-81 -5 0 -10 16 -10 35 0 33 -2 35 -35 35 -33 0 -35 -2 -35 -35 0 -19 -4 -35
-10 -35 -6 0 -10 31 -10 73 0 77 13 115 18 53 3 -34 5 -36 38 -36z m197 58
c57 -30 64 -92 15 -133 -25 -21 -38 -25 -62 -21 -72 15 -96 96 -42 142 30 26
56 30 89 12z m273 -9 c24 -20 5 -28 -26 -11 -27 15 -32 16 -57 2 -23 -13 -28
-23 -28 -55 0 -34 4 -42 28 -53 23 -11 32 -11 57 2 16 8 32 10 35 6 7 -11 -47
-40 -74 -40 -30 0 -70 41 -77 77 -5 27 -1 37 25 64 27 27 37 31 67 26 20 -3
42 -11 50 -18z m104 6 c0 -8 -7 -15 -15 -15 -12 0 -15 -14 -15 -65 0 -37 -4
-65 -10 -65 -6 0 -10 28 -10 64 0 56 -2 64 -21 69 -33 9 -12 27 32 27 28 0 39
-4 39 -15z m108 -8 c30 -24 5 -67 -40 -67 -25 0 -28 -3 -28 -35 0 -19 -4 -35
-10 -35 -6 0 -10 33 -10 80 l0 81 38 -7 c20 -4 43 -11 50 -17z m145 11 c57
-30 64 -92 15 -133 -25 -21 -38 -25 -62 -21 -72 15 -96 96 -42 142 30 26 56
30 89 12z m134 -55 c25 28 50 54 55 55 4 2 8 -30 8 -72 0 -87 -17 -104 -22
-21 l-3 55 -45 -55 c-25 -30 -48 -55 -52 -55 -5 0 -8 33 -8 73 0 90 14 112 18
28 l3 -61 46 53z m161 50 c2 -7 -3 -13 -12 -13 -13 0 -16 -12 -16 -65 0 -51
-3 -65 -15 -65 -12 0 -15 14 -15 65 0 51 -3 65 -15 65 -16 0 -20 12 -8 24 12
11 76 2 81 -11z m107 2 c0 -5 -17 -11 -37 -13 -30 -3 -38 -7 -38 -23 0 -16 7
-19 41 -19 24 0 38 -4 34 -10 -3 -5 -22 -10 -41 -10 -30 0 -34 -3 -34 -25 0
-22 4 -25 34 -25 19 0 38 -4 41 -10 4 -6 -13 -10 -44 -10 l-51 0 0 73 c0 41 3
77 7 81 11 10 88 3 88 -9z m214 -55 c36 0 53 -21 49 -57 -3 -26 -7 -28 -50
-31 l-48 -3 0 74 c0 77 13 115 18 53 3 -32 6 -36 31 -36z m101 29 c0 -27 3
-29 35 -29 33 0 35 2 35 36 0 21 4 33 10 29 6 -3 10 -40 10 -81 0 -43 -4 -74
-10 -74 -5 0 -10 16 -10 35 0 33 -2 35 -35 35 -33 0 -35 -2 -35 -35 0 -24 -5
-35 -15 -35 -12 0 -15 15 -15 73 0 41 3 77 6 80 12 12 24 -4 24 -34z m368 -42
c2 -64 0 -77 -13 -77 -10 0 -15 10 -15 33 l0 32 -26 -32 c-14 -18 -32 -33 -41
-33 -11 0 -8 9 12 32 26 30 26 32 7 39 -44 16 -33 74 15 82 57 9 58 7 61 -76z
m160 66 c2 -9 -7 -13 -27 -13 l-31 0 0 -65 c0 -37 -4 -65 -10 -65 -6 0 -10 34
-10 81 l0 80 37 -3 c20 -2 38 -9 41 -15z m105 0 c4 -2 7 -17 7 -33 0 -24 -5
-31 -27 -36 -53 -11 -55 -13 -51 -44 3 -20 0 -30 -9 -30 -10 0 -13 19 -13 73
0 41 3 77 7 80 6 7 69 -1 86 -10z m68 -41 l21 -47 17 42 c17 44 41 76 41 56 0
-17 -51 -136 -66 -152 -13 -14 -54 -7 -54 10 0 6 9 8 19 4 31 -10 33 9 6 69
-14 31 -25 61 -25 67 0 21 20 -3 41 -49z m216 -24 c1 -61 -2 -78 -13 -78 -11
0 -14 16 -14 65 l0 65 -35 0 -35 0 0 -65 c0 -37 -4 -65 -10 -65 -11 0 -14 143
-3 154 4 4 30 6 58 4 l50 -3 2 -77z m141 0 c2 -65 0 -78 -13 -78 -12 0 -15 13
-15 65 l0 65 -35 0 -35 0 0 -65 c0 -37 -4 -65 -10 -65 -11 0 -14 143 -3 154 4
4 30 6 58 4 l50 -3 3 -77z m-1265 18 c35 -76 42 -99 27 -94 -7 2 -22 28 -34
57 l-23 53 -23 -56 c-20 -49 -40 -73 -40 -47 0 13 58 141 64 141 2 0 16 -24
29 -54z m425 -11 c18 -36 32 -70 32 -75 0 -19 -17 -10 -28 15 -9 19 -19 25
-42 25 -23 0 -33 -6 -42 -25 -10 -22 -28 -35 -28 -20 0 12 63 145 69 145 4 0
21 -29 39 -65z m968 -2 c16 -37 31 -71 32 -75 9 -21 -20 -5 -30 17 -8 18 -19
25 -40 25 -21 0 -32 -7 -40 -25 -6 -14 -17 -25 -25 -25 -10 0 -6 14 12 51 14
27 30 61 35 75 5 13 13 24 18 24 5 0 22 -30 38 -67z m-2416 -23 c0 -5 -13 -10
-30 -10 -16 0 -30 5 -30 10 0 6 14 10 30 10 17 0 30 -4 30 -10z"/>
<path d="M1938 2883 c7 -3 16 -2 19 1 4 3 -2 6 -13 5 -11 0 -14 -3 -6 -6z"/>
<path d="M1827 2814 c3 -7 9 -14 14 -14 14 0 10 17 -5 23 -10 4 -13 1 -9 -9z"/>
<path d="M3158 2653 c7 -3 16 -2 19 1 4 3 -2 6 -13 5 -11 0 -14 -3 -6 -6z"/>
<path d="M1958 2683 c7 -3 16 -2 19 1 4 3 -2 6 -13 5 -11 0 -14 -3 -6 -6z"/>
<path d="M3298 2473 c7 -3 16 -2 19 1 4 3 -2 6 -13 5 -11 0 -14 -3 -6 -6z"/>
<path d="M2028 2373 c7 -3 16 -2 19 1 4 3 -2 6 -13 5 -11 0 -14 -3 -6 -6z"/>
<path d="M3338 2393 c7 -3 16 -2 19 1 4 3 -2 6 -13 5 -11 0 -14 -3 -6 -6z"/>
<path d="M3210 2370 c-9 -6 -10 -10 -3 -10 6 0 15 5 18 10 8 12 4 12 -15 0z"/>
<path d="M583 2293 c9 -2 25 -2 35 0 9 3 1 5 -18 5 -19 0 -27 -2 -17 -5z"/>
<path d="M680 2290 c-21 -7 -21 -8 -5 -9 11 0 27 4 35 9 18 11 5 11 -30 0z"/>
<path d="M1778 2293 c7 -3 16 -2 19 1 4 3 -2 6 -13 5 -11 0 -14 -3 -6 -6z"/>
<path d="M3435 2300 l-30 -8 27 -1 c15 0 30 4 33 9 3 6 5 9 3 9 -2 -1 -16 -5
-33 -9z"/>
<path d="M3360 2290 c0 -5 4 -10 9 -10 6 0 13 5 16 10 3 6 -1 10 -9 10 -9 0
-16 -4 -16 -10z"/>
<path d="M3168 2263 c7 -3 16 -2 19 1 4 3 -2 6 -13 5 -11 0 -14 -3 -6 -6z"/>
<path d="M636 2192 c-3 -5 8 -6 25 -4 16 2 29 6 29 8 0 8 -49 4 -54 -4z"/>
<path d="M488 2173 c7 -3 16 -2 19 1 4 3 -2 6 -13 5 -11 0 -14 -3 -6 -6z"/>
<path d="M878 2163 c7 -3 16 -2 19 1 4 3 -2 6 -13 5 -11 0 -14 -3 -6 -6z"/>
<path d="M1770 2190 c-9 -6 -10 -10 -3 -10 6 0 15 5 18 10 8 12 4 12 -15 0z"/>
<path d="M3318 2183 c7 -3 16 -2 19 1 4 3 -2 6 -13 5 -11 0 -14 -3 -6 -6z"/>
<path d="M3548 2173 c7 -3 16 -2 19 1 4 3 -2 6 -13 5 -11 0 -14 -3 -6 -6z"/>
<path d="M658 2093 c6 -2 18 -2 25 0 6 3 1 5 -13 5 -14 0 -19 -2 -12 -5z"/>
<path d="M3368 2093 c7 -3 16 -2 19 1 4 3 -2 6 -13 5 -11 0 -14 -3 -6 -6z"/>
<path d="M3468 2083 c6 -2 18 -2 25 0 6 3 1 5 -13 5 -14 0 -19 -2 -12 -5z"/>
<path d="M518 1983 c7 -3 16 -2 19 1 4 3 -2 6 -13 5 -11 0 -14 -3 -6 -6z"/>
<path d="M1798 1983 c7 -3 16 -2 19 1 4 3 -2 6 -13 5 -11 0 -14 -3 -6 -6z"/>
<path d="M3198 1973 c7 -3 16 -2 19 1 4 3 -2 6 -13 5 -11 0 -14 -3 -6 -6z"/>
<path d="M3448 1903 c7 -3 16 -2 19 1 4 3 -2 6 -13 5 -11 0 -14 -3 -6 -6z"/>
<path d="M3358 1883 c7 -3 16 -2 19 1 4 3 -2 6 -13 5 -11 0 -14 -3 -6 -6z"/>
<path d="M648 1783 c7 -3 16 -2 19 1 4 3 -2 6 -13 5 -11 0 -14 -3 -6 -6z"/>
<path d="M858 1773 c6 -2 18 -2 25 0 6 3 1 5 -13 5 -14 0 -19 -2 -12 -5z"/>
<path d="M598 1583 c23 -2 61 -2 85 0 23 2 4 4 -43 4 -47 0 -66 -2 -42 -4z"/>
<path d="M1818 1583 c34 -2 90 -2 125 0 34 2 6 3 -63 3 -69 0 -97 -1 -62 -3z"/>
<path d="M2043 1583 c9 -2 23 -2 30 0 6 3 -1 5 -18 5 -16 0 -22 -2 -12 -5z"/>
<path d="M3338 1583 c34 -2 90 -2 125 0 34 2 6 3 -63 3 -69 0 -97 -1 -62 -3z"/>
<path d="M690 1305 c0 -42 16 -52 63 -38 27 7 32 14 32 38 0 29 -2 30 -47 33
l-48 3 0 -36z"/>
<path d="M925 1317 c-48 -48 -49 -95 -1 -143 51 -51 118 -43 156 18 41 65 1
144 -78 155 -37 5 -45 2 -77 -30z"/>
<path d="M3030 1299 l0 -42 37 6 c80 13 83 69 4 75 l-41 3 0 -42z"/>
<path d="M400 880 c0 -15 7 -20 25 -20 18 0 25 5 25 20 0 15 -7 20 -25 20 -18
0 -25 -5 -25 -20z"/>
<path d="M535 885 c-14 -13 -25 -31 -25 -40 0 -19 44 -65 62 -65 30 0 58 31
58 65 0 24 -7 39 -22 49 -31 22 -45 20 -73 -9z"/>
<path d="M1183 895 c-33 -23 -32 -79 2 -101 56 -37 123 35 83 89 -19 24 -60
30 -85 12z"/>
<path d="M1670 880 c0 -17 5 -21 28 -18 16 2 27 9 27 18 0 9 -11 16 -27 18
-23 3 -28 -1 -28 -18z"/>
<path d="M1812 894 c-33 -23 -30 -78 4 -101 23 -15 29 -15 52 -2 14 8 30 21
35 30 15 24 1 64 -28 77 -33 15 -36 15 -63 -4z"/>
<path d="M2470 816 c0 -22 4 -26 31 -26 26 0 30 3 27 23 -2 16 -11 23 -30 25
-24 3 -28 0 -28 -22z"/>
<path d="M2890 880 c0 -15 7 -20 25 -20 18 0 25 5 25 20 0 15 -7 20 -25 20
-18 0 -25 -5 -25 -20z"/>
<path d="M3160 880 c0 -16 7 -20 30 -20 23 0 30 4 30 20 0 16 -7 20 -30 20
-23 0 -30 -4 -30 -20z"/>
<path d="M2766 855 c-4 -10 1 -15 14 -15 13 0 18 5 14 15 -4 8 -10 15 -14 15
-4 0 -10 -7 -14 -15z"/>
<path d="M3737 860 c-4 -15 0 -20 14 -20 17 0 18 3 9 20 -6 11 -12 20 -14 20
-2 0 -6 -9 -9 -20z"/>
</g>
</svg>
